<svg xmlns="http://www.w3.org/2000/svg" x="0px" y="0px"
width="48" height="48"
viewBox="0 0 171 171"
style=" fill:#000000;"><g transform=""><g fill="none" fill-rule="nonzero" stroke="none" stroke-width="1" stroke-linecap="butt" stroke-linejoin="miter" stroke-miterlimit="10" stroke-dasharray="" stroke-dashoffset="0" font-family="none" font-weight="none" font-size="none" text-anchor="none" style="mix-blend-mode: normal"><path d="M0,171.98863v-171.98863h171.98863v171.98863z" fill="none"></path><path d="M85.99432,171.49432c-47.22035,0 -85.5,-38.27965 -85.5,-85.5v0c0,-47.22035 38.27965,-85.5 85.5,-85.5v0c47.22035,0 85.5,38.27965 85.5,85.5v0c0,47.22035 -38.27965,85.5 -85.5,85.5z" fill="#0099cf"></path><path d="" fill="none"></path><path d="" fill="none"></path><g fill="#000000"><path d="M85.5,28.42875c-14.0087,0 -25.365,11.3563 -25.365,25.365c0,14.0087 11.3563,25.365 25.365,25.365c14.0087,0 25.365,-11.3563 25.365,-25.365c0,-14.0087 -11.3563,-25.365 -25.365,-25.365zM69.23816,99.85451c-18.89058,3.49403 -40.80941,12.45629 -40.80941,26.86361v15.85313h114.1425v-15.85313c0,-14.40732 -21.91883,-23.37593 -40.80941,-26.86361l-16.26184,16.26184z"></path></g></g></g></svg>